<svg xmlns="http://www.w3.org/2000/svg" width="1100" height="2450" viewBox="0 0 1100 2450">
  <rect width="1100" height="2450" fill="#fbf5e9"/>
  <rect width="1100" height="54" fill="#141414"/><text x="45" y="35" fill="#fbf5e9" font-family="Arial, Helvetica, sans-serif" font-size="17" font-weight="700" letter-spacing="2">THE EDIT LAB</text><text x="807" y="35" fill="#fbf5e9" font-family="Arial, Helvetica, sans-serif" font-size="14">START · LEARN · MAKE</text>
  <rect y="54" width="1100" height="482" fill="#151514"/><circle cx="900" cy="202" r="168" fill="#fb5f43"/><text x="64" y="187" fill="#fbf5e9" font-family="Arial, Helvetica, sans-serif" font-size="34" font-weight="700" letter-spacing="3">VIDEO EDITING, DEMYSTIFIED</text><text x="59" y="316" fill="#fbf5e9" font-family="Arial, Helvetica, sans-serif" font-size="132" font-weight="900" letter-spacing="-10">MAKE</text><text x="59" y="421" fill="#fbf5e9" font-family="Arial, Helvetica, sans-serif" font-size="132" font-weight="900" letter-spacing="-10">THE CUT.</text><rect x="63" y="456" width="165" height="45" rx="22" fill="#c4e7da"/><text x="89" y="484" fill="#151514" font-family="Arial, Helvetica, sans-serif" font-size="16" font-weight="700">GET STARTED</text>
  <rect y="536" width="1100" height="355" fill="#c4e7da"/><text x="62" y="628" fill="#151514" font-family="Arial, Helvetica, sans-serif" font-size="72" font-weight="900" letter-spacing="-5">THE 4 ESSENTIALS</text><g fill="#151514"><rect x="62" y="690" width="220" height="130"/><rect x="301" y="690" width="220" height="130"/><rect x="540" y="690" width="220" height="130"/><rect x="779" y="690" width="260" height="130"/></g><g fill="#c4e7da" font-family="Arial, Helvetica, sans-serif" font-size="22" font-weight="700"><text x="84" y="760">01 / CUT</text><text x="323" y="760">02 / LIGHT</text><text x="562" y="760">03 / TEXT</text><text x="800" y="760">04 / SOUND</text></g>
  <rect y="891" width="1100" height="500" fill="#f4db6d"/><text x="62" y="985" fill="#151514" font-family="Arial, Helvetica, sans-serif" font-size="27" font-weight="700" letter-spacing="2">A WORKFLOW THAT MAKES SENSE</text><text x="62" y="1085" fill="#151514" font-family="Arial, Helvetica, sans-serif" font-size="76" font-weight="900" letter-spacing="-5">FROM IDEA</text><text x="62" y="1155" fill="#151514" font-family="Arial, Helvetica, sans-serif" font-size="76" font-weight="900" letter-spacing="-5">TO EXPORT</text><path d="M120 1255H940" stroke="#151514" stroke-width="3"/><g fill="#151514"><circle cx="120" cy="1255" r="18"/><circle cx="260" cy="1255" r="18"/><circle cx="400" cy="1255" r="18"/><circle cx="540" cy="1255" r="18"/><circle cx="680" cy="1255" r="18"/><circle cx="820" cy="1255" r="18"/><circle cx="940" cy="1255" r="18"/></g>
  <rect y="1391" width="1100" height="430" fill="#e6c3ed"/><text x="62" y="1482" fill="#151514" font-family="Arial, Helvetica, sans-serif" font-size="27" font-weight="700" letter-spacing="2">PERSONALIZE YOUR PATH</text><text x="62" y="1580" fill="#151514" font-family="Arial, Helvetica, sans-serif" font-size="75" font-weight="900" letter-spacing="-5">WHAT’S</text><text x="62" y="1650" fill="#151514" font-family="Arial, Helvetica, sans-serif" font-size="75" font-weight="900" letter-spacing="-5">YOUR VIBE?</text><rect x="682" y="1462" width="320" height="276" rx="17" fill="#151514"/><circle cx="842" cy="1564" r="54" fill="#fb5f43"/><rect x="718" y="1643" width="248" height="22" rx="11" fill="#fbf5e9"/><rect x="718" y="1690" width="164" height="22" rx="11" fill="#fbf5e9"/>
  <rect y="1821" width="1100" height="387" fill="#151514"/><text x="62" y="1918" fill="#fbf5e9" font-family="Arial, Helvetica, sans-serif" font-size="26" font-weight="700" letter-spacing="2">INSPIRATION, WITH A BLUEPRINT</text><g stroke="#fbf5e9" stroke-width="2" fill="none"><circle cx="194" cy="2056" r="83"/><circle cx="385" cy="2056" r="83"/><circle cx="576" cy="2056" r="83"/><circle cx="767" cy="2056" r="83"/><circle cx="958" cy="2056" r="83"/></g><circle cx="385" cy="2056" r="62" fill="#fb5f43"/><circle cx="767" cy="2056" r="62" fill="#c4e7da"/>
  <rect y="2208" width="1100" height="242" fill="#fb5f43"/><text x="62" y="2300" fill="#151514" font-family="Arial, Helvetica, sans-serif" font-size="65" font-weight="900" letter-spacing="-5">STILL CURIOUS?</text><text x="62" y="2362" fill="#151514" font-family="Arial, Helvetica, sans-serif" font-size="23" font-weight="700">FREQUENTLY ASKED QUESTIONS ↓</text>
</svg>
